<?xml version="1.0" standalone="no"?><!DOCTYPE svg PUBLIC "-//W3C//DTD SVG 1.1//EN" "http://www.w3.org/Graphics/SVG/1.1/DTD/svg11.dtd"><svg t="1638581552369" class="icon" viewBox="0 0 1024 1024" version="1.1" xmlns="http://www.w3.org/2000/svg" p-id="19463" xmlns:xlink="http://www.w3.org/1999/xlink" width="200" height="200"><defs><style type="text/css"></style></defs><path d="M172.387185 539.179013c-7.123234-11.790534-14.57495-23.175839-21.00029-35.113729-3.946892-7.335059-6.343475-15.507182-9.395998-23.320125-2.068102-5.291516-4.457522-10.500145-5.999644-15.945157-2.098801-7.4159-3.548826-15.018042-5.215792-22.553669-0.216941-0.979304 0.054235-2.058892-0.102331-3.060709-1.781576-11.422144-3.587712-22.841218-5.425569-34.254152-0.427742-2.657526-1.452071-5.29254-1.438769-7.934716 0.083911-17.350157 0.174985-34.706453 0.692778-52.0474 0.231267-7.735172 1.399883-15.446807 2.269693-23.155373 0.301875-2.671852 0.861624-5.331425 1.51654-7.942903 2.122337-8.473999 4.01136-17.027815 6.614651-25.355481 2.986007-9.556657 6.434549-18.984377 10.07445-28.315906 2.37407-6.086625 5.175883-12.046361 8.268314-17.804505 5.552459-10.337439 10.632151-21.081131 17.438161-30.556946 9.041934-12.586666 18.562774-25.146727 29.687136-35.836183 12.629645-12.136412 26.730805-22.956851 41.191144-32.896224 10.262738-7.054673 22.138206-11.786441 33.376155-17.389042 7.126304-3.552919 14.251585-7.190773 21.653159-10.084683 8.721639-3.41068 17.718547-6.129604 26.63973-9.014304 6.370081-2.059915 12.746302-4.155646 19.235087-5.776563 8.651031-2.161223 17.420765-3.845585 26.126031-5.798053 4.264117-0.956791 8.452509-2.315742 12.751419-3.042289 12.945847-2.190899 25.918299-4.232394 38.902008-6.188956 7.662517-1.154289 15.353686-2.14485 23.054065-3.018753 12.744255-1.444908 25.480324-3.106758 38.266535-4.006244 19.621896-1.381463 39.291888-2.071172 58.925041-3.300162 10.582009-0.662079 21.131273-1.842974 31.695886-2.771113 1.52575-0.134053 3.060709-0.228197 4.592598-0.23536 71.086012-0.352017 142.172023-0.707105 213.258035-1.022283 17.053398-0.075725 34.133402 0.554632 51.154054-0.209778 11.330046-0.508583 15.97074 7.272637 17.415648 15.821337 0.662079 3.917216-1.00898 8.238638-1.681292 12.366655-0.322341 1.973958-0.784876 3.925403-1.183965 5.887081-0.905626 4.446265-1.842974 8.885368-2.704598 13.33982-0.508583 2.628874-0.868787 5.2864-1.344624 7.922437-0.778736 4.311189-1.545192 8.626471-2.410909 12.921287-1.890047 9.378601-3.727904 18.769482-5.798053 28.108175-1.851161 8.353248-3.988848 16.642029-5.992481 24.961508-1.762133 7.315616-3.499707 14.638395-5.282307 21.949918-0.597611 2.450818-1.225921 4.89959-1.980097 7.305383-0.49835 1.591241-1.401929 3.060709-1.857301 4.66116-3.709485 13.053294-7.315616 26.13524-11.035334 39.185464-2.847861 9.993608-5.560646 20.036335-8.804527 29.903054-3.03001 9.215896-6.680143 18.228153-10.05603 27.331485-1.689479 4.556783-3.491521 9.075703-5.027503 13.682627-1.252527 3.755534 0.974188 5.459339 4.298909 5.828752 13.489222 1.49812 26.986631 2.935865 40.49325 4.273327 11.802814 1.168616 23.605627 2.427282 35.43914 3.177366 12.216229 0.774643 24.465205 1.12052 36.70497 1.394766 9.111518 0.204661 10.779507 1.655709 10.776438 10.640338-0.046049 121.254621-0.390903 242.511289 0.190335 363.762841 0.085958 17.882276-5.160533 33.115212-13.349029 48.105624-5.494131 10.057053-10.238179 20.637016-16.715707 30.016641-9.03784 13.087063-19.129686 25.479301-29.258371 37.767162-6.254447 7.587815-13.021571 14.854313-20.24816 21.517059-16.83441 15.524578-34.174334 30.468942-53.862745 42.424228-11.20111 6.801916-22.031782 14.236236-33.407877 20.721951-8.438183 4.810562-17.467837 8.591679-26.266224 12.761652-9.594519 4.548596-19.104103 9.309016-28.889981 13.405311-5.334495 2.233877-11.087523 3.847631-16.803711 4.626367-2.774183 0.3776-5.980201-1.619894-8.848529-2.870374-10.582009-4.612041-21.187555-9.184173-31.623231-14.114462-8.192589-3.871167-16.311501-7.960299-24.168446-12.465916-11.666714-6.690376-23.363104-13.404288-34.512025-20.904099-11.929704-8.025791-23.788799-16.33299-34.6778-25.683962-13.272281-11.397584-26.172079-23.394826-37.991266-36.272112-11.678994-12.724813-22.25691-26.544563-32.458249-40.511669-6.40692-8.771781-11.58178-18.515702-16.659425-28.16548-4.673439-8.883321-8.559956-18.187221-12.596899-27.39186-0.845251-1.926886-1.160429-4.229325-1.165546-6.359848-0.061398-27.457352-0.020466-54.914704-0.016373-82.372056 0-1.873674-0.014326-3.753487-0.161682-5.619998-0.210801-2.672876-1.166569-4.538363-4.433986-4.080945-3.825119 0.535189-7.66968 1.02126-11.522428 1.236154-3.131317 0.174985-6.28924-0.01535-9.43079-0.159636-15.124466-0.693802-30.309306-0.823761-45.350884-2.349511-10.806113-1.096984-21.436218-4.004197-32.116465-6.242168-7.881504-1.651616-15.895015-2.968611-23.531949-5.423523-13.69593-4.403287-27.370371-9.025561-40.641629-14.547321-11.372002-4.730745-22.422685-10.399861-33.123398-16.516162-6.728238-3.845585-9.614985-13.928221-6.961552-20.136619 3.768837-8.819876 12.236696-15.012925 20.193925-12.874215 6.712889 1.804089 12.809747 5.846148 19.247366 8.746198 7.427156 3.346211 14.894222 6.607488 22.408359 9.752108 5.692652 2.382257 11.413957 4.739954 17.256012 6.711865 5.858428 1.977028 11.843746 3.621481 17.84339 5.128811 9.399067 2.360767 18.824741 4.641717 28.305673 6.637164 4.282536 0.901533 8.772804 0.780783 13.091156 1.559519 21.517059 3.8814 43.228547 3.321652 64.930825 3.078105 0.833995-0.00921 1.666966-0.13303 3.080152-0.25378 0.313132-2.88777 0.88516-5.701862 0.88516-8.515954 0.017396-81.006965-0.022513-162.013931-0.052189-243.020896 0-1.364067-0.024559-2.729158 0.013303-4.093225 0.162706-5.877871 1.384533-7.315616 7.188726-7.544837 14.935154-0.591471 29.899984-0.675382 44.809555-1.635243 17.090237-1.100054 34.17945-2.533706 51.182706-4.557806 14.408151-1.715061 28.735461-4.234441 43.011606-6.869455 7.780197-1.435699 15.384385-3.828188 23.058159-5.829775 6.385431-1.664919 12.854772-3.088338 19.10922-5.15644 9.089006-3.00545 18.024515-6.478552 27.013237-9.783831 7.04137-2.588965 13.897521-6.118348 21.164019-7.484462 3.970428-0.74599 8.720615 1.86958 12.94994 3.427052 12.616342 4.64581 25.079188 9.717316 37.744649 14.219863 6.470365 2.300392 13.246699 3.739161 19.900236 5.570879 5.233188-12.905938 10.275018-25.067932 15.075347-37.323047 1.700735-4.340865 2.870374-8.893554 4.185322-13.378705 2.912329-9.936303 5.677303-19.916609 8.661264-29.831422 3.425006-11.380188 7.231705-22.648836 10.466376-34.08019 2.001587-7.071046 3.207042-14.365172 4.845355-21.541619 1.419326-6.217608 2.957355-12.408611 4.418636-18.61701 2.536776-10.776438 5.079692-21.550829 7.573489-32.337499 2.160199-9.343809 4.2897-18.694781 6.351662-28.061103 0.465604-2.114151 1.321088-4.552689 0.684592-6.386454-0.662079-1.906419-2.827395-3.364631-4.526083-4.790096-0.499373-0.419556-1.650593-0.061398-2.50403-0.061398-52.015677 0.001023-104.058984-1.020236-156.034752 0.420579-27.097148 0.751107-54.211692 2.13871-81.34261 2.63706-11.887748 0.217964-23.788799 0.372483-35.651988 1.083681-17.098423 1.02433-34.174334 2.464121-51.249221 3.851725-12.05864 0.980327-24.149003 1.796926-36.136012 3.365654-13.000082 1.700735-25.895787 4.194532-38.839587 6.332219-9.792017 1.616824-19.593244 3.179412-29.376051 4.853541-2.287089 0.391926-4.535293 1.068332-6.760984 1.747807-1.443885 0.440022-2.768043 1.303692-4.224208 1.666966-11.887748 2.969635-23.985274 5.260817-35.638685 8.958022-11.585873 3.675716-22.838148 8.493441-34.035164 13.279445-8.79634 3.759627-17.530258 7.79964-25.864064 12.478196-19.793812 11.112082-37.683251 24.668843-53.342906 41.313941-13.632485 14.491039-25.358551 30.229488-33.901111 48.097438-5.957689 12.461823-10.328229 25.671683-15.82236 38.368866-6.442736 14.889105-7.616468 30.93557-10.695596 46.547129-1.00591 5.098111-0.293689 10.543124-0.291642 15.8285 0.004093 13.131065-0.224104 26.272363 0.207731 39.390125 0.196475 5.978155 1.719154 11.914354 2.671852 17.86488 0.294712 1.841951 0.953721 3.66139 1.003863 5.502317 0.375553 13.660114 4.848425 26.507724 8.733918 39.297005 3.228531 10.628058 8.90788 20.515243 13.568017 30.700209 1.391696 3.041266 2.982938 5.993504 4.526083 8.964162 2.396583 4.616134 5.051039 4.865821 8.28264 0.694825 2.672876-3.450589 5.042853-7.14677 7.835456-10.492982 12.783141-15.32094 25.220405-30.965246 38.649252-45.702901 12.254092-13.447267 25.172309-26.372647 38.620599-38.626739 14.755052-13.444197 30.29498-26.048259 45.796022-38.646182 9.153474-7.439436 18.670222-14.485923 28.428469-21.113877 11.005658-7.476275 22.381753-14.422478 33.751708-21.343097 10.18906-6.202259 20.388353-12.444427 30.958082-17.949814 9.324366-4.856611 19.151176-8.755408 28.785603-13.011338 7.906064-3.492544 15.796778-7.031137 23.805172-10.275018 4.6673-1.89107 9.528004-3.319605 14.343683-4.822842 8.276501-2.584871 16.517185-5.331425 24.902156-7.506974 7.145747-1.854231 14.423501-3.825119 21.734-4.28049 12.297071-0.765433 24.691355-0.87902 36.998659-0.294712 9.240455 0.438998 16.144702 13.855566 12.173251 22.171975-5.103228 10.686387-12.05864 13.850449-23.985274 12.43317-4.473895-0.531096-9.234315 1.313925-13.859659 2.097778-2.506077 0.424672-5.02341 0.807389-7.502881 1.356904-9.636474 2.134617-19.35072 3.994987-28.862351 6.595208-9.533121 2.605338-19.042705 5.507434-28.227901 9.127891-10.244318 4.037966-20.148899 8.953929-30.129204 13.641695-5.909593 2.77623-11.740392 5.734608-17.493419 8.820899-6.456039 3.463891-12.881378 7.006578-19.148106 10.79895-8.789177 5.318122-17.603937 10.630105-26.075889 16.428158-13.521968 9.254781-27.01119 18.590404-40.085974 28.459169-27.210735 20.537755-51.830459 44.029796-75.030857 68.898183-14.630209 15.682167-28.401864 32.247448-41.575908 49.181119-12.027941 15.461133-23.077601 31.724539-33.890878 48.075949-6.440689 9.738805-11.721973 20.259416-17.293875 30.553876-6.144954 11.352559-12.456706 22.648836-17.894555 34.342156-4.796236 10.310833-8.455579 21.147646-12.68388 31.725562-2.170432 5.429663-4.649903 10.741645-6.67912 16.22145-1.331321 3.595898-2.112104 7.397481-3.130294 11.109012-1.902326 6.931876-3.834328 13.855566-5.689582 20.799722-2.037403 7.629771-3.990894 15.282055-6.014994 22.914896-0.212848 0.802272-0.829901 1.51347-0.968048 2.316765-1.446955 8.471952-3.049452 16.925485-4.183276 25.440415-1.289366 9.685593-2.488681 19.405979-3.101641 29.150924-0.724501 11.519358-1.11438 23.084765-1.000793 34.623565 0.071631 7.235798-2.672876 12.672624-7.828292 17.274432-6.54302 5.840008-21.759583 3.580548-26.204825-3.805676-2.505054-4.161786-3.911076-8.41567-3.594875-13.434987 0.63138-10.003841 0.437975-20.066011 1.233084-30.052456 0.99056-12.444427 2.325975-24.880667 4.096295-37.236066 1.37737-9.618055 3.52222-19.135826 5.551436-28.649504 2.758834-12.941753 5.533017-25.886577 8.698103-38.733163 1.517563-6.160303 3.996011-12.08013 5.947456-18.138102 1.852184-5.746888 3.489474-11.565407 5.40408-17.289782 1.163499-3.477194 2.568499-6.884804 4.049223-10.242272 6.027274-13.664208 11.920494-27.392884 18.263969-40.910759 5.154393-10.983145 10.587126-21.859867 16.435321-32.485879C159.920246 559.285956 166.288281 549.343513 172.387185 539.179013zM884.863103 565.207829c0-56.791447 0-113.583918-0.001023-170.375366 0-1.364067 0.422625-2.946099-0.124843-4.037966-0.685615-1.367137-2.097778-3.227508-3.325745-3.329838-11.30344-0.944512-22.647813-1.396813-33.955346-2.300392-15.709797-1.254573-31.467689-2.252297-47.073108-4.342912-13.049201-1.747807-25.960255-4.679579-38.83754-7.517207-9.553587-2.104941-19.014052-4.694929-28.40698-7.442506-8.883321-2.598174-17.776875-5.291516-26.378787-8.674567-6.846942-2.693342-13.204743-6.608511-19.910469-9.697873-1.441838-0.664126-3.692089-0.674359-5.14416-0.028653-6.317892 2.811022-12.351306 6.285147-18.729573 8.933463-8.216125 3.411703-16.567327 6.567579-25.041326 9.265014-7.384178 2.350534-15.006785 3.960195-22.545482 5.809309-7.723915 1.895163-15.400758 4.125971-23.228027 5.426593-15.69547 2.607384-31.42164 5.266957-47.241954 6.819313-18.384719 1.804089-36.874839 2.612501-55.337329 3.465938-4.351098 0.201591-6.024204 1.276063-6.021134 5.794983 0.081864 113.75481 0.045025 227.508597 0.148379 341.263407 0.00307 3.650133 0.449231 7.721869 2.091638 10.864442 4.051269 7.752568 9.113565 14.9679 13.423731 22.594601 12.700253 22.475897 29.964452 41.417295 46.978964 60.499909 6.411013 7.189749 13.802354 13.600763 21.267373 19.733437 12.811794 10.524704 25.815969 20.845771 39.157835 30.68486 8.950859 6.600325 18.489096 12.44238 28.013007 18.213827 8.043187 4.874007 16.341177 9.359158 24.722054 13.633508 5.974062 3.047406 12.196787 5.647627 18.445094 8.100492 5.996574 2.354628 11.304464 0.270153 16.802688-2.62785 11.135618-5.868661 22.927175-10.531867 33.871435-16.712637 12.018731-6.78759 23.743774-14.231119 34.95-22.288632 13.758352-9.892301 27.337625-20.154016 40.078811-31.302937 11.618619-10.166547 22.220071-21.535479 32.869618-32.755008 6.067182-6.391571 11.838629-13.19451 16.84669-20.433378 8.744151-12.639878 16.908088-25.689079 25.091468-38.706557 4.233418-6.734378 6.791683-13.769608 6.735401-22.249747C884.684024 676.064636 884.863103 620.635209 884.863103 565.207829z" p-id="19464"></path><path d="M745.317906 554.554188c13.791098 0 26.901697 0.016373 40.012296-0.005117 11.597129-0.01842 23.193235-0.089028 34.789341-0.115634 6.980995-0.016373 9.039887 2.032286 9.04091 9.171893 0.002047 30.187533-0.036839 60.374042-0.046049 90.561575-0.001023 4.092201 0.096191 8.184403 0.119727 12.276604 0.042979 7.252171-2.003634 9.171893-9.471722 9.093099-18.067494-0.190335-36.136012-0.356111-54.203506-0.508583-5.116531-0.042979-10.249435 0.248663-15.344476-0.084934-4.139274-0.271176-5.259794 1.37123-5.235235 5.253654 0.140193 22.169929 0.098237 44.340881 0.121773 66.511833 0.001023 1.364067 0.055259 2.728134 0.046049 4.092201-0.059352 8.783037-1.308809 9.980305-9.904581 9.974166-34.449603-0.023536-68.90023-0.00921-103.349833-0.008186-7.182586 0-7.995091-0.760317-7.997138-7.852852-0.007163-23.876804-0.109494-47.75463 0.12382-71.629387 0.048095-4.910846-1.394766-6.429433-6.345522-6.367011-20.12127 0.252757-40.248679 0.077771-60.373019 0.134053-3.222391 0.00921-6.442736 0.547469-9.66615 0.569982-5.071506 0.036839-7.610328-2.418073-7.609305-7.323802 0.005117-35.131125 0.031722-70.26225 0.103354-105.393375 0.013303-6.691399 1.90028-8.487302 8.44023-8.476045 23.194258 0.037862 46.388517-0.016373 69.580728 0.216941 4.336772 0.042979 5.948479-0.933255 5.872754-5.622044-0.378623-23.351847-0.381693-46.709835-0.571005-70.064752-0.057305-7.018857 1.219781-8.442276 8.121981-8.443299 35.133172-0.004093 70.266343-0.004093 105.399515 0 7.143701 0.001023 8.402367 1.382487 8.362458 8.764618-0.12382 23.190165-0.212848 46.379307-0.294712 69.569472C745.035474 550.514175 745.19818 552.181141 745.317906 554.554188zM792.720519 591.171154c-1.413186-0.112564-2.417049-0.264013-3.418866-0.261966-23.02132 0.033769-46.043662 0.013303-69.064982 0.165776-10.007935 0.066515-11.32186-1.039679-11.311627-10.927887 0.022513-22.340821-0.12382-44.683688 0.181125-67.020416 0.073678-5.350868-1.883907-6.746658-6.79066-6.659677-12.104689 0.213871-24.215518 0.031722-36.3243 0.084934-6.230911 0.026606-6.635117 0.473791-6.638187 6.763031-0.00921 22.852474 0.01842 45.704948 0.013303 68.557422-0.002047 7.957229-1.296529 9.208732-9.196453 9.187243-23.02132-0.061398-46.043662-0.109494-69.064982-0.162706-1.789763-0.004093-3.578502-0.001023-5.234211-0.001023 0 16.754592 0 32.680307 0 49.115628 8.387018 0 16.372899 0.049119 24.358781-0.010233 17.045211-0.125867 34.090423-0.349971 51.135634-0.446162 6.241145-0.034792 8.694009 2.51938 8.544607 8.659217-0.057305 2.375094-0.530073 4.745071-0.535189 7.117095-0.044002 21.146623 0.064468 42.295292-0.100284 63.440891-0.033769 4.336772 1.62501 5.629207 5.729491 5.577019 12.788258-0.161682 25.583678-0.227174 38.368866 0.030699 4.641717 0.094144 5.735631-1.675152 5.695722-6.003737-0.215918-23.020296-0.154519-46.043662-0.217964-69.066005-0.022513-8.055466 1.788739-9.851369 9.807367-9.785877 22.672372 0.185218 45.344744 0.328481 68.017116 0.484024 1.849114 0.01228 3.698229 0.002047 6.04774 0.002047C792.720519 623.561865 792.720519 607.631034 792.720519 591.171154z" p-id="19465"></path></svg>