<?xml version="1.0" standalone="no"?><!DOCTYPE svg PUBLIC "-//W3C//DTD SVG 1.1//EN" "http://www.w3.org/Graphics/SVG/1.1/DTD/svg11.dtd"><svg t="1619771933956" class="icon" viewBox="0 0 1024 1024" version="1.1" xmlns="http://www.w3.org/2000/svg" p-id="2597" xmlns:xlink="http://www.w3.org/1999/xlink" width="200" height="200"><defs><style type="text/css"></style></defs><path d="M924.796904 953.34453h-227.838291a256.958073 256.958073 0 0 0 110.079174-171.198716 283.133876 283.133876 0 0 0-90.68732-218.110364 123.135076 123.135076 0 0 0 7.359945-127.039047l116.671125-116.671125a70.591471 70.591471 0 0 0 0-99.903251L640.639035 20.743524a70.591471 70.591471 0 0 0-99.839251 0L141.37878 420.100529a70.591471 70.591471 0 0 0 0 99.839251l199.678502 199.806502a70.65547 70.65547 0 0 0 99.839251 0l116.799124-116.735125a121.023092 121.023092 0 0 0 103.551224 5.503959 223.358325 223.358325 0 0 1 75.583433 165.566758c-7.359945 65.599508-66.047505 125.823056-173.758697 179.198656H147.842731a35.327735 35.327735 0 0 0 0 70.65547h776.826174a35.327735 35.327735 0 0 0 0-70.65547z m-533.755997-283.517874l-199.742502-199.678502M614.783229 370.564901a123.135076 123.135076 0 0 0-87.423344 36.159729m49.919625 124.799064a52.991603 52.991603 0 1 1 37.43972 15.551883 52.991603 52.991603 0 0 1-37.43972-15.487884z m0 0" p-id="2598" fill="#e6e6e6"></path><path d="M267.713832 831.489444a35.327735 35.327735 0 0 0 24.959813-60.223548L92.931143 571.523394a35.327735 35.327735 0 1 0-49.919626 49.919625l199.742502 199.678503a35.199736 35.199736 0 0 0 24.959813 10.239923z m0 0" p-id="2599" fill="#e6e6e6"></path></svg>