<?xml version="1.0" standalone="no"?><!DOCTYPE svg PUBLIC "-//W3C//DTD SVG 1.1//EN" "http://www.w3.org/Graphics/SVG/1.1/DTD/svg11.dtd"><svg t="1619771798897" class="icon" viewBox="0 0 1024 1024" version="1.1" xmlns="http://www.w3.org/2000/svg" p-id="1754" xmlns:xlink="http://www.w3.org/1999/xlink" width="200" height="200"><defs><style type="text/css"></style></defs><path d="M724.84 332.68c17.074 0 31.040-10.485 31.040-23.298v-26.215c0-12.814-13.966-23.299-31.040-23.299l-425.69-0c-17.070 0-31.034 10.485-31.034 23.299v26.215c0 12.813 13.965 23.298 31.034 23.298l425.69 0z" p-id="1755"></path><path d="M797.175 828.421h-46.995v-46.97c0-4.495-3.34-7.828-7.833-7.828h-23.498c-4.497 0-7.834 3.334-7.834 7.828v46.968h-46.993c-4.497 0-7.835 3.336-7.835 7.833v23.485c0 4.494 3.34 7.826 7.835 7.826h46.991v46.973c0 4.495 3.339 7.828 7.834 7.828h23.498c4.495 0 7.833-7.25 7.833-11.745v-43.055h46.995c4.493 0 7.833-3.336 7.833-7.83l0.002-23.483c-0.001-4.495-3.341-7.829-7.833-7.829z" p-id="1756"></path><path d="M924.467 850.305v-672.8c0-5.576-0.301-11.085-0.882-16.513-7.856-78.134-74.297-139.659-154.412-139.659l-514.458 0c-85.355 0-155.189 69.835-155.189 155.189v712.639c0 5.576 0.301 11.085 0.882 16.513 7.856 78.134 74.297 139.659 154.412 139.659h514.458c85.355 0 155.189-69.835 155.189-155.189v-37.828c0.007-0.671 0.007-1.341 0-2.012zM848.020 896.977c0 0-18.738 23.463-37.063 41.785-10.96 10.965-21.776 19.936-28.345 25.12-3.58 0.506-7.232 0.774-10.942 0.774h-92.099c-6.434-5.036-17.802-14.362-29.332-25.894-18.324-18.324-37.058-41.785-37.058-41.785-25.222-25.221-25.222-66.113 0-91.332 0 0 13.478-18.2 31.549-36.273 17.808-17.807 40.208-35.487 40.208-35.487 25.221-25.217 66.11-25.217 91.329 0 0 0 21.883 17.164 39.422 34.699 18.324 18.328 32.334 37.061 32.334 37.061 1.313 1.313 2.553 2.671 3.73 4.065v73.057c0 3.726-0.252 7.394-0.729 10.992-0.959 1.098-1.957 2.173-3.003 3.219zM252.429 964.656c-41.381 0-75.69-32.527-79.69-73.812-0.324-2.977-0.497-5.999-0.497-9.061l-0-446.946v-250.935c0-45.039 36.037-81.889 80.082-81.889h519.241c41.381 0 75.69 32.527 79.69 73.812 0.324 2.977 0.497 6 0.497 9.062v548.934c-0.051-0.051-0.101-0.102-0.152-0.153-24.941-24.938-56.061-49.346-56.061-49.346-35.864-35.861-94.011-35.861-129.878 0 0 0-31.855 25.142-57.178 50.466-25.698 25.701-44.865 51.584-44.865 51.584-35.867 35.864-35.867 94.014 0 129.881 0 0 19.843 24.847 42.028 48.404l-353.217 0z" p-id="1757"></path><path d="M641.669 513.1v-25.582c0-12.505-10.382-22.736-23.075-22.736h-316.451c-12.689 0-23.070 10.231-23.070 22.736v25.582c0 12.504 10.382 22.736 23.070 22.736h316.451c12.693 0 23.075-10.231 23.075-22.736z" p-id="1758"></path></svg>