<?xml version="1.0" standalone="no"?><!DOCTYPE svg PUBLIC "-//W3C//DTD SVG 1.1//EN" "http://www.w3.org/Graphics/SVG/1.1/DTD/svg11.dtd"><svg t="1619441115691" class="icon" viewBox="0 0 1077 1024" version="1.1" xmlns="http://www.w3.org/2000/svg" p-id="2638" xmlns:xlink="http://www.w3.org/1999/xlink" width="210.3515625" height="200"><defs><style type="text/css"></style></defs><path d="M469.800421 52.062316a26.947368 26.947368 0 0 1 38.103579 0c45.433263 45.325474 47.589053 117.652211 6.467368 165.618526l-2.533052 2.694737-0.377263 0.754526-3.233685 3.880421a68.176842 68.176842 0 0 0 0 96.471579 26.947368 26.947368 0 0 1-38.049684 38.103579 122.125474 122.125474 0 0 1-6.467368-165.672421l2.533052-2.856421 0.377264-0.538947 3.233684-3.934316a68.176842 68.176842 0 0 0 0-96.471579 26.947368 26.947368 0 0 1 0-38.049684zM614.561684 52.062316a26.947368 26.947368 0 0 1 38.103579 0c45.433263 45.325474 47.589053 117.652211 6.467369 165.618526l-2.533053 2.694737-0.377263 0.754526-3.233684 3.880421a68.176842 68.176842 0 0 0 0 96.471579 26.947368 26.947368 0 1 1-38.049685 38.103579 122.125474 122.125474 0 0 1-6.467368-165.672421l2.533053-2.856421 0.377263-0.538947 3.233684-3.934316a68.176842 68.176842 0 0 0 0-96.471579 26.947368 26.947368 0 0 1 0-38.049684z" fill="#e6e6e6" p-id="2639"></path><path d="M469.800421 52.062316a26.947368 26.947368 0 0 1 38.103579 0c45.433263 45.325474 47.589053 117.652211 6.467368 165.618526l-2.533052 2.694737-0.377263 0.754526-3.233685 3.880421a68.176842 68.176842 0 0 0 0 96.471579 26.947368 26.947368 0 0 1-38.049684 38.103579 122.125474 122.125474 0 0 1-6.467368-165.672421l2.533052-2.856421 0.377264-0.538947 3.233684-3.934316a68.176842 68.176842 0 0 0 0-96.471579 26.947368 26.947368 0 0 1 0-38.049684zM614.561684 52.062316a26.947368 26.947368 0 0 1 38.103579 0c45.433263 45.325474 47.589053 117.652211 6.467369 165.618526l-2.533053 2.694737-0.377263 0.754526-3.233684 3.880421a68.176842 68.176842 0 0 0 0 96.471579 26.947368 26.947368 0 1 1-38.049685 38.103579 122.125474 122.125474 0 0 1-6.467368-165.672421l2.533053-2.856421 0.377263-0.538947 3.233684-3.934316a68.176842 68.176842 0 0 0 0-96.471579 26.947368 26.947368 0 0 1 0-38.049684zM71.087158 652.503579a26.947368 26.947368 0 0 1 26.947368 26.947368c0 12.126316 1.724632 23.929263 5.173895 35.301053a26.947368 26.947368 0 0 1-51.631158 15.467789 176.235789 176.235789 0 0 1-7.437474-50.768842 26.947368 26.947368 0 0 1 26.947369-26.947368z" fill="#e6e6e6" p-id="2640"></path><path d="M1045.126737 675.893895a26.947368 26.947368 0 0 1 24.090947 24.791579l-0.107789 4.850526-26.246737 250.233263a81.057684 81.057684 0 0 1-72.542316 67.260632l-7.329684 0.323368H158.773895c-33.145263 0-62.679579-20.210526-75.776-54.002526l-2.694737-8.030316-29.642105-235.52a26.947368 26.947368 0 0 1 52.439579-11.425684l1.024 4.742737 28.725894 231.046737c3.018105 10.024421 11.479579 17.246316 21.557895 18.917052l4.365474 0.377263h804.217263a27.432421 27.432421 0 0 0 25.330526-16.815158l1.185684-4.149894 26.031158-248.616421a26.947368 26.947368 0 0 1 24.737685-24.037053l4.850526 0.053895zM577.751579 404.965053c78.416842 0 150.258526 38.804211 193.536 102.4a26.947368 26.947368 0 1 1-44.517053 30.288842 180.331789 180.331789 0 0 0-323.530105 56.373894 26.947368 26.947368 0 0 1-52.224-13.473684 234.226526 234.226526 0 0 1 226.735158-175.589052z" fill="#e6e6e6" p-id="2641"></path><path d="M835.368421 476.537263a234.118737 234.118737 0 0 1 233.903158 225.28 26.947368 26.947368 0 0 1-53.894737 1.778526 180.224 180.224 0 0 0-180.008421-173.163789c-40.798316 0-79.548632 13.743158-111.130947 38.642526a26.947368 26.947368 0 0 1-33.414737-42.307368c41.013895-32.336842 91.459368-50.229895 144.545684-50.229895zM278.042947 453.254737c52.816842 0 103.046737 17.785263 143.898948 49.744842a26.947368 26.947368 0 1 1-33.145263 42.469053 179.146105 179.146105 0 0 0-110.753685-38.265264 180.170105 180.170105 0 0 0-180.008421 173.271579 26.947368 26.947368 0 0 1-53.894737-2.101894 234.118737 234.118737 0 0 1 233.903158-225.064421z" fill="#e6e6e6" p-id="2642"></path></svg>