<?xml version="1.0" standalone="no"?><!DOCTYPE svg PUBLIC "-//W3C//DTD SVG 1.1//EN" "http://www.w3.org/Graphics/SVG/1.1/DTD/svg11.dtd"><svg t="1638582809057" class="icon" viewBox="0 0 1024 1024" version="1.1" xmlns="http://www.w3.org/2000/svg" p-id="23524" xmlns:xlink="http://www.w3.org/1999/xlink" width="200" height="200"><defs><style type="text/css"></style></defs><path d="M957 512.6c-0.1 246.7-199.4 444.7-447.2 444.4C266.1 956.7 66.9 756 67 510.8 67.1 264.7 267 66.7 514.9 67c245 0.3 442.2 199.1 442.1 445.6zM510.7 923.1c226.4 1.7 412.5-182.2 414.5-409.7 2-224.3-184.3-412.2-411-414.5-225.6-2.3-411.9 183.2-412.7 411-0.8 229 179.9 411.4 409.2 413.2z" p-id="23525"></path><path d="M652.2 524.5c-31-107.4-54.5-132-121.9-132.3-53.6-0.2-86.9 20.2-99.5 63.3 24-1.9 47.1-3.7 70.3-5.5 0.9 2.6 1.8 5.1 2.7 7.7-54.4 13.4-119.6 12.6-130 94.4h46c90.7 0 181.4-0.2 272.1 0.1 33.3 0.1 33.6 4.7 20.9 34.9-18.1 42.9-45.8 58.2-93.1 55.4-74.8-4.4-150-1.2-225-1.2-63.4 0-74.2-8.9-85.6-78.6 5.5 9.1 12.9 17.7 16.2 27.6 11 33.2 33.5 41.3 67 40.2 79.4-2.4 159-0.8 238.4-1 47.1-0.1 56-7.8 69.2-61.8H364.6c-0.7-13.8-2.9-24.7-1.6-35.1 6.4-51.1 98.6-146 149-154.3 81.7-13.5 157.7 61.6 140.2 146.2z" p-id="23526"></path></svg>