<?xml version="1.0" standalone="no"?><!DOCTYPE svg PUBLIC "-//W3C//DTD SVG 1.1//EN" "http://www.w3.org/Graphics/SVG/1.1/DTD/svg11.dtd"><svg t="1640089547318" class="icon" viewBox="0 0 1024 1024" version="1.1" xmlns="http://www.w3.org/2000/svg" p-id="1000" xmlns:xlink="http://www.w3.org/1999/xlink" width="200" height="200"><defs><style type="text/css"></style></defs><path d="M947.156339 468.629903a246.249005 246.249005 0 0 0-249.15975-66.36498 438.358158 438.358158 0 0 1-63.454235-96.636725A707.893121 707.893121 0 0 0 416.236498 58.214895a25.614554 25.614554 0 0 0-34.928937 6.403638 24.450256 24.450256 0 0 0 6.403639 34.928937 678.785674 678.785674 0 0 1 198.512791 232.859579c66.947129 146.119386 265.45992 304.4639 375.486072 304.4639a76.843661 76.843661 0 0 0 16.30017 0 34.928937 34.928937 0 0 0 27.94315-25.032404A169.405344 169.405344 0 0 0 947.156339 468.629903z m-209.573622-23.285958a188.616259 188.616259 0 0 1 160.090961 45.989767A200.841387 200.841387 0 0 1 957.052871 582.148948c-52.975554 0-146.119386-58.214895-222.380898-136.805003zM847.02672 803.947698a296.313815 296.313815 0 0 0-224.127345-31.436044c-116.42979-131.565662-224.709494-316.689028-232.85958-412.161455-18.046617-174.644684-273.610006-349.289369-284.670835-356.275156a25.614554 25.614554 0 0 0-34.928937 6.985787 25.032405 25.032405 0 0 0 3.492893 34.928937s248.577601 169.987493 264.295623 319.599773c18.046617 174.644684 291.074474 565.848778 478.526435 603.688459a282.924389 282.924389 0 0 0 58.214895 6.403638 64.618533 64.618533 0 0 0 67.529278-34.346788c15.135873-50.646958-61.707789-118.758385-95.472427-137.387151z m-20.375213 116.429789A363.843093 363.843093 0 0 1 664.814099 815.008528a244.502558 244.502558 0 0 1 157.762365 32.018192 188.616259 188.616259 0 0 1 71.022172 73.932916s-12.225128 10.478681-66.947129-1.164298zM504.140989 836.548039a465.719159 465.719159 0 0 1-121.086981-100.711768V702.653781C375.486072 603.10631 107.115406 448.25469 52.975554 417.982945a24.450256 24.450256 0 0 0-33.764639 9.896532 25.032405 25.032405 0 0 0 9.314383 34.346788c123.997726 69.275725 299.224559 190.362706 302.135305 242.756111v39.00398c5.239341 78.590108 20.957362 199.677089 91.979533 252.070494a132.147811 132.147811 0 0 0 80.918704 26.196703 204.334281 204.334281 0 0 0 44.825469-5.23934c27.94315-6.985787 65.782831-19.793064 71.604321-52.393406 10.478681-42.496873-45.407618-80.336555-115.847641-128.072768zM539.652075 969.277999a95.472428 95.472428 0 0 1-84.411597-11.642979A220.634451 220.634451 0 0 1 391.786242 815.008528c25.032405 20.375213 54.722001 40.750426 83.829449 58.214894a465.719159 465.719159 0 0 1 97.801023 77.425811s-5.239341 11.642979-33.764639 18.628766z" p-id="1001"></path></svg>