<?xml version="1.0" standalone="no"?><!DOCTYPE svg PUBLIC "-//W3C//DTD SVG 1.1//EN" "http://www.w3.org/Graphics/SVG/1.1/DTD/svg11.dtd"><svg t="1638581142431" class="icon" viewBox="0 0 1024 1024" version="1.1" xmlns="http://www.w3.org/2000/svg" p-id="7190" xmlns:xlink="http://www.w3.org/1999/xlink" width="200" height="200"><defs><style type="text/css"></style></defs><path d="M754.6 774.45H273.76a298.2 298.2 0 0 1-177.59-59.1L74.85 699.4a26.85 26.85 0 0 1 32.18-43l21.32 16a244.12 244.12 0 0 0 145.41 48.4H754.6a244.24 244.24 0 0 0 145.12-48.17l21.74-16.22a26.85 26.85 0 1 1 32.11 43l-21.74 16.22a298.28 298.28 0 0 1-177.23 58.82zM837.8 590.41a26.85 26.85 0 0 1-25-36.68A103.24 103.24 0 0 0 819 504c-4.51-38.11-31.71-70.51-66.18-78.79a76.43 76.43 0 0 0-52.08 5.79 26.86 26.86 0 0 1-38-19.46c-12.06-67.08-74.13-115.78-147.57-115.78-73.87 0-136 49-147.71 116.59a26.84 26.84 0 0 1-38.49 19.41c-18.8-9.44-38.26-11.16-57.8-5.15-32.67 10.07-57.47 41.26-61.71 77.61a103.29 103.29 0 0 0 5.88 48.71 26.85 26.85 0 1 1-50.15 19.18 157.43 157.43 0 0 1-9.1-74.11c6.67-57.16 46.55-106.47 99.23-122.71a128.21 128.21 0 0 1 67.18-2.61C349.9 295.39 426.34 242 515.13 242c88.46 0 164.93 53.21 192.48 130.2a130.22 130.22 0 0 1 57.76 0.8c56.78 13.64 99.77 63.76 107 124.71a157 157 0 0 1-9.54 75.65 26.85 26.85 0 0 1-25.03 17.05z" p-id="7191"></path></svg>