<?xml version="1.0" standalone="no"?><!DOCTYPE svg PUBLIC "-//W3C//DTD SVG 1.1//EN" "http://www.w3.org/Graphics/SVG/1.1/DTD/svg11.dtd"><svg t="1619441710201" class="icon" viewBox="0 0 1024 1024" version="1.1" xmlns="http://www.w3.org/2000/svg" p-id="4383" xmlns:xlink="http://www.w3.org/1999/xlink" width="200" height="200"><defs><style type="text/css"></style></defs><path d="M936.1 236.7L538.7 7.2C530.5 2.5 521.4 0.1 512.2 0.1c-9.1 0-18.3 2.4-26.5 7.1L88.3 236.7c-16.4 9.5-26.5 27-26.5 45.9v458.9c0 18.9 10.1 36.4 26.5 45.9l397.5 229.5c8.2 4.7 17.3 7.1 26.5 7.1 9.1 0 18.3-2.4 26.5-7.1l397.5-229.5c16.4-9.5 26.5-27 26.5-45.9V282.6c-0.2-19-10.3-36.5-26.7-45.9z m-5.2 504.8c0 7.6-4.1 14.6-10.6 18.4L522.8 989.4c-3.2 1.9-6.9 2.8-10.6 2.8-3.7 0-7.4-1-10.6-2.8L104.1 759.9c-6.5-3.8-10.6-10.8-10.6-18.4V282.6c0-7.6 4.1-14.6 10.6-18.4L501.6 34.7c3.2-1.9 6.9-2.8 10.6-2.8 3.7 0 7.4 1 10.6 2.8l397.5 229.5c6.5 3.8 10.6 10.8 10.6 18.4v458.9z" p-id="4384" fill="#e6e6e6"></path><path d="M852.8 287.3L512.2 483.9 171.6 287.3c-7.6-4.4-17.3-1.8-21.7 5.8-4.4 7.6-1.8 17.3 5.8 21.7l340.6 196.6v393.2c0 8.8 7.1 15.9 15.9 15.9s15.9-7.1 15.9-15.9V511.5l340.6-196.6c7.6-4.4 10.2-14.1 5.8-21.7-4.4-7.7-14.1-10.3-21.7-5.9z" p-id="4385" fill="#e6e6e6"></path></svg>