<?xml version="1.0" standalone="no"?><!DOCTYPE svg PUBLIC "-//W3C//DTD SVG 1.1//EN" "http://www.w3.org/Graphics/SVG/1.1/DTD/svg11.dtd"><svg t="1640001231740" class="icon" viewBox="0 0 1101 1024" version="1.1" xmlns="http://www.w3.org/2000/svg" p-id="785" xmlns:xlink="http://www.w3.org/1999/xlink" width="215.0390625" height="200"><defs><style type="text/css"></style></defs><path d="M858.844544 499.158065c25.693454-18.345445 55.048624-25.693454 84.416082-25.693453 84.416082 0 157.822438 69.732353 157.822438 157.822438s-69.74464 157.822438-157.822438 157.822438c-40.377183 0-80.742077-18.345445-110.109535-47.712903-14.683729 40.377183-33.029174 77.080361-58.722628 110.109535-80.754365 110.109535-209.209346 172.49388-345.012335 172.49388S168.832163 961.615656 84.47752 851.50612a420.237262 420.237262 0 0 1-84.416082-253.248244V451.445162c0-22.01945 18.345445-40.377183 36.703179-40.377182h781.702745c22.01945 0 36.703178 18.345445 36.703178 40.377182l3.686292 47.712903z m84.416082 51.386908c-44.038899 0-80.742077 36.703178-80.742078 80.742077s36.703178 80.742077 80.742078 80.742077 80.742077-36.703178 80.742077-80.742077-36.703178-80.742077-80.742077-80.742077z m-866.15569-55.048624v106.435531c0 73.406357 22.01945 146.812714 66.058349 205.535341 66.046061 91.751802 172.481592 143.089559 286.252843 143.089559s216.545066-51.386907 286.301995-143.138709c44.038899-58.722628 66.058349-132.128985 66.058348-205.535342v-106.38638z m113.771252-440.425853c-11.058875-7.372584-14.683729-25.693454-7.372584-40.377183s25.693454-18.345445 40.377183-11.058875c3.686292 3.686292 11.058875 7.372584 14.683729 11.058875a85.755434 85.755434 0 0 1 25.693453 25.693454c22.01945 22.01945 40.377183 55.048624 44.038899 88.090086v22.019449c-7.372584 33.029174-29.367458 58.722628-55.048623 77.080361-14.683729 14.683729-29.367458 29.367458-29.367458 47.712903 0 14.683729 7.372584 29.367458 11.058875 40.377183 7.372584 11.058875 14.683729 18.345445 22.01945 29.367457l18.345445 18.345446c11.058875 11.058875 14.683729 29.367458 3.686292 40.377182q-11.058875 11.058875-22.01945 11.058876a28.040393 28.040393 0 0 1-18.345445-7.372584 50.661937 50.661937 0 0 0-14.683729-11.058875c-7.372584-7.372584-18.345445-18.345445-25.693454-29.367458-18.345445-25.693454-36.703178-58.722628-36.703178-91.751802 0-40.377183 22.01945-69.732353 51.386907-91.751802 14.683729-11.058875 33.029174-29.367458 33.029175-51.386908 0-11.058875-7.372584-25.693454-14.683729-33.029174-3.686292-14.683729-14.683729-25.693454-22.01945-33.029174-3.686292-3.686292-7.372584-3.686292-11.058875-7.372584s-3.674004-3.637141-7.348008-3.637141z m198.187333 0c-14.683729-7.372584-18.345445-25.693454-7.372583-40.377183 7.372584-14.683729 25.693454-18.345445 40.377182-11.058875 3.686292 3.686292 11.058875 7.372584 14.683729 11.058875 11.058875 7.372584 18.345445 14.683729 29.367458 25.693454 22.01945 22.01945 40.377183 55.048624 44.038899 88.090086v22.019449c-11.058875 33.029174-33.029174 58.722628-62.396632 77.080361-14.683729 11.058875-29.367458 25.693454-29.367458 44.038899 0 14.683729 7.372584 29.367458 11.058875 40.377183 7.372584 11.058875 14.683729 18.345445 22.01945 29.367457l18.345445 18.345446c11.058875 11.058875 14.683729 29.367458 3.686292 40.377182q-11.058875 11.058875-22.01945 11.058876a28.040393 28.040393 0 0 1-18.345445-7.372584 50.661937 50.661937 0 0 0-14.683729-11.058875c-7.372584-7.372584-18.345445-18.345445-25.693453-29.367458-18.394596-25.668878-36.727754-58.698053-36.727754-91.739515 0-40.377183 22.01945-69.732353 51.386907-91.751802 14.683729-11.058875 33.029174-29.367458 33.029174-51.386907 0-11.058875-7.372584-25.693454-14.683729-33.029174 0-11.058875-11.058875-22.01945-22.019449-29.367458-3.686292-3.686292-7.372584-7.372584-11.058875-7.372584 0.036863-3.637141 0.036863-3.637141-3.637142-3.637141z m198.187333 0c-14.683729-7.372584-18.345445-25.693454-7.372583-40.377183 7.372584-14.683729 25.693454-18.345445 36.703178-11.058875 3.686292 3.686292 11.058875 7.372584 14.683729 11.058875 11.058875 7.372584 18.345445 14.683729 29.367458 25.693454 22.01945 22.01945 40.377183 55.048624 44.038899 88.090086v22.019449c-7.372584 33.029174-33.029174 58.722628-58.722628 77.080361-14.683729 11.058875-29.367458 25.693454-29.367458 44.038899 0 14.683729 7.372584 29.367458 11.058875 40.377183 7.372584 11.058875 14.683729 18.345445 22.01945 29.367457l18.345445 18.345446c11.058875 11.058875 14.683729 29.367458 3.686292 40.377182q-11.058875 11.058875-22.019449 11.058876a28.040393 28.040393 0 0 1-18.394596-7.384872 50.661937 50.661937 0 0 0-14.683729-11.058875c-7.372584-7.372584-18.345445-18.345445-25.693454-29.367458-18.345445-25.693454-36.703178-58.722628-36.703178-91.751802 0-40.377183 22.01945-69.732353 51.386907-91.751802 14.634578-10.985149 33.066037-29.342882 33.066037-51.313182 0-11.058875-7.372584-25.693454-14.683729-33.029174-3.74773-14.732879-22.044025-29.416608-36.727753-40.426333z" p-id="786"></path></svg>