<?xml version="1.0" standalone="no"?><!DOCTYPE svg PUBLIC "-//W3C//DTD SVG 1.1//EN" "http://www.w3.org/Graphics/SVG/1.1/DTD/svg11.dtd"><svg t="1638581240263" class="icon" viewBox="0 0 1027 1024" version="1.1" xmlns="http://www.w3.org/2000/svg" p-id="9849" xmlns:xlink="http://www.w3.org/1999/xlink" width="200.5859375" height="200"><defs><style type="text/css"></style></defs><path d="M378.88 782.848H376.32C204.288 769.536 0 730.624 0 618.496c0-113.152 64-240.128 175.104-348.16 107.008-103.424 233.472-165.376 338.432-165.376 103.424 0 228.864 61.952 336.384 165.376 112.64 108.032 177.152 235.008 177.152 348.16 0 54.784-47.616 97.792-141.824 126.464-18.944 5.632-38.912-4.608-44.544-23.552-5.632-18.944 4.608-38.912 23.552-44.544 67.584-20.992 91.648-44.544 91.648-58.368 0-92.16-57.856-203.264-155.136-296.96-93.184-89.6-203.264-145.408-287.232-145.408-85.504 0-196.096 55.808-288.768 145.408-96.256 93.184-153.6 203.776-153.6 296.96 0 22.528 75.776 75.264 310.784 93.184 19.456 1.536 34.304 18.432 32.768 38.4-2.048 18.432-17.408 32.768-35.84 32.768z" p-id="9850"></path><path d="M644.096 928.256c-71.68 0-139.776-7.168-190.976-19.456-73.216-17.92-110.592-48.128-110.592-89.6 0-66.56 36.864-140.288 100.864-202.24 61.44-59.392 135.168-95.232 196.608-95.232 122.88 0 297.472 153.6 297.472 297.472 0.512 98.304-204.8 109.056-293.376 109.056z m-229.888-112.128c14.336 16.384 104.96 43.008 246.272 40.448 133.632-2.048 195.584-27.648 205.824-39.936-2.048-102.4-139.264-223.744-226.304-223.744-86.016 0-223.232 121.344-225.792 223.232z" p-id="9851"></path></svg>