<?xml version="1.0" standalone="no"?><!DOCTYPE svg PUBLIC "-//W3C//DTD SVG 1.1//EN" "http://www.w3.org/Graphics/SVG/1.1/DTD/svg11.dtd"><svg t="1638581409784" class="icon" viewBox="0 0 1389 1024" version="1.1" xmlns="http://www.w3.org/2000/svg" p-id="16127" xmlns:xlink="http://www.w3.org/1999/xlink" width="271.2890625" height="200"><defs><style type="text/css"></style></defs><path d="M681.984 16.932571c155.721143 0 293.997714 12.068571 396.361143 35.84 120.539429 24.941714 198.217143 64.512 212.224 135.168l1.170286 6.948572 0.585142 6.509714 70.948572 550.107429v6.656c0 139.190857-329.874286 248.905143-668.416 248.905143-329.801143 0-648.96-101.814857-667.611429-236.763429l-0.621714-5.888-0.219429-6.253714 0.073143-5.997715 47.177143-547.145142c4.169143-80.128 76.836571-119.515429 214.016-152.210286C396.726857 29.805714 536.027429 16.932571 681.984 16.932571z m553.069714 439.734858l-5.046857 2.816c-101.156571 54.198857-317.037714 80.530286-548.022857 80.530285-218.843429 0-430.08-24.576-537.124571-74.24l-3.949715-1.938285-26.441143 294.326857c0 60.854857 283.684571 156.16 567.113143 159.049143l13.275429 0.073142c279.734857 0 563.675429-91.282286 579.657143-154.185142l0.585143-2.998858 0.292571 0.438858-40.338286-303.872z m-26.441143-199.424l-4.937142 2.889142c-94.354286 51.931429-290.084571 79.030857-494.445715 81.481143l-27.245714 0.182857c-210.578286 0-420.132571-26.953143-518.948571-80.713142l-3.730286-2.121143-8.740572 98.596571 0.804572 2.413714c0.731429 2.56 1.206857 4.937143 1.389714 6.948572v2.742857c5.705143 29.403429 242.395429 78.336 527.067429 78.336l28.525714-0.182857 28.16-0.475429c251.830857-5.924571 457.362286-49.846857 469.942857-76.434285l0.256-0.877715 0.146286-2.194285c0.914286-8.704 4.096-16.676571 9.142857-23.149715l3.657143-4.096-11.044572-83.346285zM697.490286 106.788571l-15.506286-0.073142c-212.589714 0-401.188571 28.16-481.755429 68.278857l-6.4 3.328 9.106286 5.12 5.961143 2.998857c21.101714 10.093714 52.004571 20.333714 90.550857 29.44 95.561143 22.674286 225.536 36.132571 382.537143 36.132571 156.379429 0 286.208-13.787429 382.500571-36.937143 38.4-9.216 69.339429-19.529143 90.660572-29.622857 3.584-1.682286 6.838857-3.364571 9.691428-4.937143l4.790858-2.889142-4.937143-2.56c-79.469714-39.277714-261.046857-66.962286-467.2-68.278858z" p-id="16128"></path></svg>