<?xml version="1.0" standalone="no"?><!DOCTYPE svg PUBLIC "-//W3C//DTD SVG 1.1//EN" "http://www.w3.org/Graphics/SVG/1.1/DTD/svg11.dtd"><svg t="1638959879524" class="icon" viewBox="0 0 1024 1024" version="1.1" xmlns="http://www.w3.org/2000/svg" p-id="2361" xmlns:xlink="http://www.w3.org/1999/xlink" width="200" height="200"><defs><style type="text/css"></style></defs><path d="M392.31 493.125c-34.582 21.967-43.531 69.835-20.069 107.133 23.497 37.185 70.519 49.563 105.059 27.654 34.518-21.867 43.466-69.871 20.004-107.097-23.462-37.221-70.485-49.625-104.995-27.69zM831.103 675.586c-6.645 18.848 3.561 39.456 22.815 46.004 19.359 6.576 40.343-3.425 47.022-22.377 6.677-18.81-8.103-87.738-8.103-87.738s-55.054 45.225-61.731 64.112zM1005.834 736.537c-15.219-13.391-38.611-12.065-52.041 2.782-13.487 14.95-26.714 84.144-26.714 84.144s68.447-20.953 81.978-35.834c13.522-14.913 12.106-37.835-3.223-51.092zM821.947 859.066s8.307 70.246 20.718 86.010c12.411 15.903 35.462 18.681 51.597 6.307 16.071-12.31 19.056-35.157 6.644-50.989-12.337-15.838-78.96-41.329-78.96-41.329z" fill="" p-id="2362"></path><path d="M833.034 416.371l28.276-17.967c15.599-9.901 20.239-30.646 10.373-46.311l-8.949-14.173c-9.863-15.66-30.514-20.337-46.143-10.444l-28.201 17.968-44.69-70.855 28.242-17.968c15.597-9.895 20.273-30.649 10.373-46.309l-8.91-14.171c-9.903-15.663-30.517-20.338-46.107-10.439l-28.311 17.968-44.645-70.919 28.273-17.903c15.631-9.939 20.242-30.645 10.409-46.279l-8.987-14.201c-9.828-15.663-30.509-20.311-46.105-10.41l-593.354 376.649c-39.022 24.75-50.651 76.623-25.968 115.745l259.147 411.094c24.674 39.227 76.31 50.86 115.33 26.111l324.948-206.262 159.651-280.064-44.654-70.857zM456.321 680.162c-36.242 101.603-171.515 49.46-134.429-51.636-110.078-5.354-98.343-155.98 17.023-143.773l0.038-0.036c-21.702-98.25 120.074-137.372 144.995-37.29 93.908-59.461 157.54 65.427 72.549 120.758 76.178 59.129-14.21 171.708-100.178 111.978z" fill="" p-id="2363"></path></svg>