<?xml version="1.0" standalone="no"?><!DOCTYPE svg PUBLIC "-//W3C//DTD SVG 1.1//EN" "http://www.w3.org/Graphics/SVG/1.1/DTD/svg11.dtd"><svg t="1619441961551" class="icon" viewBox="0 0 1024 1024" version="1.1" xmlns="http://www.w3.org/2000/svg" p-id="8912" xmlns:xlink="http://www.w3.org/1999/xlink" width="200" height="200"><defs><style type="text/css"></style></defs><path d="M907.2 207.104h-154.112v-56.32a32.768 32.768 0 0 0-65.472 0v56.32h-142.08v-56.32a32.768 32.768 0 1 0-65.664 0v56.32H337.92v-56.32c0-17.664-14.72-32-32.768-32a32.448 32.448 0 0 0-32.832 32v56.32H116.864c-29.632 0-53.76 22.208-53.76 49.472v599.872c0 27.264 24.128 49.536 53.76 49.536h790.272c29.696 0 53.76-22.272 53.76-49.536V256.64c0.064-27.264-24-49.472-53.76-49.472zM122.496 858.24V267.008h149.76v56.128a32.832 32.832 0 0 0 65.6 0v-56.128h142.016v56.128a32.768 32.768 0 0 0 65.536 0v-56.128h142.08v56.128a32.768 32.768 0 1 0 65.6 0v-56.128h148.48v591.232H122.56z m444.352-383.04a24.192 24.192 0 0 0 24.32 24H787.2a24.064 24.064 0 0 0 0-48.128H591.104a24.192 24.192 0 0 0-24.32 24.064l0.064 0.064z m24.32 141.952h146.944a24.064 24.064 0 1 0 0-48H591.168a24.064 24.064 0 1 0 0 48z m195.904 70.72H591.168a24.064 24.064 0 1 0 0 48.128h195.904a24.064 24.064 0 0 0 0-48.128z m-290.752 23.68c4.864-1.024 7.488-3.328 8.512-7.296 0.448-1.728-0.576-4.416 0-5.76 0.64-1.472 2.304-0.128 3.2-1.28 0.96-1.152 0.192-4.672 0.256-6.976 0.128-7.936 0.512-15.744 1.088-22.4 0.32-4.48 0.448-9.408 1.28-13.824 0.768-4.48 2.56-9.024 2.304-13.248-0.128-2.688-1.664-3.2-1.92-5.12-0.128-1.28 0.512-3.136 0.64-4.48a26.24 26.24 0 0 0 0-4.672c-0.192-2.944-0.96-5.824-1.472-9.024-0.96-6.336-0.832-13.12-0.832-19.392-0.064-12.992 0.576-25.92 1.92-38.848 0.64-6.464 1.408-13.184 0.192-19.2a21.312 21.312 0 0 0-7.68-13.184 29.44 29.44 0 0 0-15.808-4.928c-3.328-0.128-6.784 0-10.24-0.192l-9.6-0.896c-5.568-0.32-8.96 1.024-13.184 2.176-20.672 5.376-44.032 6.016-69.12 6.016-14.208 0-28.352 0.192-41.984-1.28-9.92-1.088-19.584-2.304-30.08-2.56a100.48 100.48 0 0 0-10.24-0.256c-2.496 0.192-4.8 0.96-7.04 1.088a60.992 60.992 0 0 1-8.064 0c-15.36-0.896-26.496-5.12-34.112-14.912 0.64-1.792 2.176-2.752 1.92-4.672-0.384-2.368-3.264-2.304-5.376-3.456a26.752 26.752 0 0 1-2.752-2.112c-2.624-2.112-5.76-5.504-7.68-6.848-0.768 3.392 1.536 6.4 2.368 8.128-2.88-0.832-5.184 0.192-6.848 0.832a69.44 69.44 0 0 1-18.112-11.52v-0.192H217.6c-0.704 3.392 1.216 6.656 2.816 8.512 2.88 3.392 7.68 6.144 10.88 7.872-0.576 1.152-2.24 1.664-2.368 3.2-0.064 1.152 0.512 1.728 1.088 2.816a36.16 36.16 0 0 0-8.768 6.4 16.64 16.64 0 0 0-4.032 6.784c-0.32 1.28-0.064 2.688-0.448 4.032-0.832 3.2-3.264 5.76-5.12 8.064a53.376 53.376 0 0 1-11.072 10.88c-3.2 2.24-6.656 3.584-7.488 7.296v2.56c1.024 3.52 3.712 5.568 6.656 7.424 1.536 1.024 4.16 3.328 5.952 3.584 4.16 0.64 7.296-1.92 10.24-1.92 1.664 0 3.392 1.28 5.312 1.728a34.56 34.56 0 0 0 6.4 0.896c6.976 0.32 15.36 1.472 19.2-1.728 6.4 7.424 15.232 14.912 18.56 25.6 0.704 2.176 1.152 4.608 1.92 7.04 0.704 2.176 1.536 4.288 2.56 6.4 1.024 1.92 2.56 3.584 3.456 5.504 1.472 3.2 2.112 6.656 3.392 9.792 3.84 9.216 9.984 16.576 23.232 16.448 0.064 6.208-0.32 12.8 0.64 18.112 0.32 1.728 1.216 3.328 1.472 4.928a47.552 47.552 0 0 1-2.752 24.064 24.512 24.512 0 0 1-5.76 7.936c-2.304 2.304-4.928 4.544-5.568 8.32 6.592 1.92 16.256 2.176 18.56-3.84 0.512-1.344 0.32-3.008 1.28-4.48 1.088-0.832 1.792 0.704 3.008 0.192 1.088-0.448 1.664-3.264 1.728-4.672 0.32-6.528-0.576-17.024 0.832-22.208 0.448-1.152-0.896-0.512-0.64-1.472 0.832 0.96 0.576-0.576 0.64-0.896 0.576-1.92 0.448-4.48 0.832-6.4 0.256-1.024 0.96-2.176 1.28-3.392 1.088-3.84 1.92-7.68 2.496-11.648 1.728 5.76 3.2 12.8 5.312 18.368 0.704 1.92 1.92 3.648 2.56 5.504 0.64 2.304 1.088 4.672 1.28 7.04 0.896 7.04 1.28 15.808-1.728 21.504-2.176 4.16-6.72 5.952-8.064 11.328 8.704 3.264 19.2 0.384 22.016-5.76-0.192-1.472-1.28-1.984-1.088-3.84 0.896-1.28 3.2-1.216 3.584-2.752 0.32-1.152-0.448-3.968-0.832-6.016l-1.088-6.016c-0.64-4.224-1.664-8.256-1.92-12.16-0.32-4.736 0.512-8 1.088-11.52 0.768-5.12 0.448-10.816 0.192-15.744-0.192-5.312-0.832-10.368-1.024-14.976 12.288-1.408 26.368 0 38.4 1.088 4.16 0.448 8.064 1.472 11.904 1.92a83.2 83.2 0 0 0 25.6-0.192c7.68-1.408 14.208-4.352 20.48-7.04 3.072 5.76 8.192 9.472 13.44 13.056-0.256 2.688-0.768 7.424 0.64 9.152 1.728-1.536 1.728-4.8 2.112-7.68 0.96 2.496 0.256 6.592 1.92 8.32 2.112-1.728 1.984-5.696 2.752-8.704 1.792 0.512 3.264 1.728 4.096 3.392 0.064 2.56-0.32 5.568 0.64 7.232 1.344-1.408 1.472-3.968 1.92-6.4 0.832 1.92 0.384 4.992 1.472 6.592 1.664-0.128 1.6-3.968 2.112-5.76 0.32-0.896 0.192-1.664 1.28-1.664 1.088-0.192 0.64 1.152 0.64 1.472 0.128 0.768 0 1.664 0 2.368 0 10.88-1.152 19.456-3.968 27.264-2.752 7.552-7.552 13.888-11.776 19.648-0.64 0.896-1.024 2.048-1.664 2.752-0.64 0.704-1.536 0.96-2.176 1.472a14.784 14.784 0 0 0-4.672 6.656c7.488 1.664 17.792 2.176 19.84-4.48 0.512-1.6-0.256-3.2 0.896-4.096 1.28-1.088 2.112 0.448 3.584 0 1.664-0.448 2.432-3.392 3.2-5.76 5.12-15.424 12.032-32.256 17.28-45.824 5.12 5.248 7.872 15.104 8.128 25.984 0.192 8.832-1.6 19.2-3.2 26.688-0.32 1.344-0.256 3.008-0.64 3.84-0.448 0.832-1.408 1.152-2.176 1.92a32.192 32.192 0 0 0-5.76 7.04c1.984 0.64 4.096 0.96 6.208 1.024l5.504 0.32z m9.152-90.88c-5.888-7.68-3.008-19.84 0-27.968 3.52 8 4.416 20.096 0 27.968z" fill="#bfbfbf" p-id="8913"></path></svg>