<?xml version="1.0" standalone="no"?><!DOCTYPE svg PUBLIC "-//W3C//DTD SVG 1.1//EN" "http://www.w3.org/Graphics/SVG/1.1/DTD/svg11.dtd"><svg t="1638581332722" class="icon" viewBox="0 0 1024 1024" version="1.1" xmlns="http://www.w3.org/2000/svg" p-id="13045" xmlns:xlink="http://www.w3.org/1999/xlink" width="200" height="200"><defs><style type="text/css"></style></defs><path d="M781.312 663.04c-5.12 14.336 2.56 30.72 17.408 35.328 14.848 5.12 31.232-2.56 36.352-17.408 5.12-14.336-6.144-67.584-6.144-67.584s-41.984 34.816-47.616 49.664zM857.6 732.672c-11.776-10.24-29.696-9.216-40.448 2.048-10.24 11.776-20.48 65.024-20.48 65.024s52.736-16.384 63.488-27.648c10.24-11.264 9.216-29.184-2.56-39.424zM708.608 768s11.264 53.248 22.016 64.512c10.752 11.264 28.672 11.776 39.936 1.024 11.264-10.752 12.288-28.16 1.536-39.936-10.24-10.752-63.488-25.6-63.488-25.6zM432.128 884.736c-6.144 0-12.288-0.512-18.432-2.048-21.504-5.12-39.936-17.92-51.712-36.352l-192.512-305.152c-24.576-38.4-12.8-89.6 25.6-114.176l440.832-279.552c10.24-6.656 22.528-8.704 34.304-6.144s22.016 9.728 28.16 19.968l6.656 10.24c13.312 20.992 7.168 49.152-13.824 62.464l-3.584 2.56 11.264 17.92 3.584-2.56c10.24-6.656 22.528-8.704 34.304-6.144s22.016 9.728 28.672 19.968l6.656 10.752c13.312 20.992 7.168 49.152-13.824 62.464l-3.584 2.56 11.264 17.92 3.584-2.048c10.24-6.656 22.528-8.704 34.304-6.144s22.016 9.728 28.16 19.968l6.656 10.752c13.312 20.992 7.168 49.152-13.824 62.464l-3.584 2.56 28.672 45.568-128 223.232-245.76 156.16c-13.312 8.192-28.672 12.8-44.032 12.8zM660.48 180.224c-0.512 0-1.536 0-2.048 0.512L217.088 460.8c-19.456 12.288-25.088 38.4-12.8 57.856l192.512 305.152c6.144 9.216 15.36 15.872 26.112 18.432 10.752 2.56 22.016 0.512 31.232-5.632L691.2 686.08l110.08-193.024-37.376-59.392 38.4-24.064c2.048-1.536 2.56-4.096 1.536-6.144l-6.656-10.752c-1.024-1.536-2.048-1.536-2.56-2.048-1.024 0-2.048 0-3.072 0.512l-38.4 24.576-55.296-87.04 38.4-24.064c2.048-1.536 2.56-4.096 1.536-6.144l-6.656-10.752c-1.024-1.024-2.048-1.536-2.56-2.048-1.024 0-2.048 0-3.072 0.512l-38.4 24.576-54.784-87.552 38.4-24.064c2.048-1.536 2.56-4.096 1.536-6.144l-6.656-10.24c-1.024-1.536-2.048-1.536-2.56-2.048-2.048 0-2.56-0.512-2.56-0.512z" fill="#BBBBBB" p-id="13046"></path><path d="M633.856 488.448c-6.656 0-13.312-3.584-17.408-9.728l-87.04-138.24c-6.144-9.728-3.072-22.016 6.656-28.16 9.728-6.144 22.016-3.072 28.16 6.656l87.04 138.24c6.144 9.728 3.072 22.016-6.656 28.16-3.072 2.048-7.168 3.072-10.752 3.072zM577.024 590.848c-6.656 0-13.312-3.584-17.408-9.728L441.344 394.24c-6.144-9.728-3.072-22.016 6.656-28.16 9.728-6.144 22.016-3.072 28.16 6.656l118.272 187.392c6.144 9.728 3.072 22.016-6.656 28.16-3.072 1.536-7.168 2.56-10.752 2.56zM505.856 632.32c-6.656 0-13.312-3.584-17.408-9.728l-117.76-186.88c-6.144-9.728-3.072-22.016 6.656-28.16 9.728-6.144 22.016-3.072 28.16 6.656l118.272 187.392c6.144 9.728 3.072 22.016-6.656 28.16-3.584 1.536-7.168 2.56-11.264 2.56z" fill="#BBBBBB" p-id="13047"></path></svg>