<?xml version="1.0" standalone="no"?><!DOCTYPE svg PUBLIC "-//W3C//DTD SVG 1.1//EN" "http://www.w3.org/Graphics/SVG/1.1/DTD/svg11.dtd"><svg t="1638582641929" class="icon" viewBox="0 0 1024 1024" version="1.1" xmlns="http://www.w3.org/2000/svg" p-id="21467" xmlns:xlink="http://www.w3.org/1999/xlink" width="200" height="200"><defs><style type="text/css"></style></defs><path d="M655.9 826.8c-14.9 0-27-12.1-27-27V637.9c0-14.9 12.1-27 27-27s27 12.1 27 27v161.9c0 14.9-12 27-27 27z" p-id="21468"></path><path d="M655.9 646.9c-44.7 0-81-36.3-81-81V224.1c0-14.9 12.1-27 27-27s27 12.1 27 27v341.8c0 14.9 12.1 27 27 27s27-12.1 27-27V224.1c0-14.9 12.1-27 27-27s27 12.1 27 27v341.8c0.1 44.7-36.3 81-81 81zM386.1 826.8c-14.9 0-27-12.1-27-27V637.9c0-14.9 12.1-27 27-27s27 12.1 27 27v161.9c0 14.9-12.1 27-27 27z" p-id="21469"></path><path d="M386.1 646.9c-44.7 0-81-36.3-81-81V224.1c0-14.9 12.1-27 27-27s27 12.1 27 27v341.8c0 14.9 12.1 27 27 27s27-12.1 27-27V224.1c0-14.9 12.1-27 27-27s27 12.1 27 27v341.8c-0.1 44.7-36.3 81-81 81z" p-id="21470"></path><path d="M817.9 844.8H206.2c-34.7 0-62.9-28.2-62.9-62.9V242.1c0-34.7 28.2-62.9 62.9-62.9H781c14.9 0 27 12.1 27 27s-12.1 27-27 27H206.2c-5 0-9 4-9 9v539.7c0 5 4.1 9 9 9h611.7c5 0 9-4 9-9V384.7c0-14.9 12.1-27 27-27s27 12.1 27 27v397.1c0 34.7-28.2 63-63 63z" p-id="21471"></path></svg>